<?xml version="1.0" encoding="UTF-8" standalone="no"?>
<svg
   xmlns:dc="http://purl.org/dc/elements/1.1/"
   xmlns:cc="http://creativecommons.org/ns#"
   xmlns:rdf="http://www.w3.org/1999/02/22-rdf-syntax-ns#"
   xmlns:svg="http://www.w3.org/2000/svg"
   xmlns="http://www.w3.org/2000/svg"
   viewBox="0 0 102.425 38.337502"
   height="38.337502"
   width="102.425"
   xml:space="preserve"
   version="1.1"
   id="svg2"><metadata
     id="metadata8"><rdf:RDF><cc:Work
         rdf:about=""><dc:format>image/svg+xml</dc:format><dc:type
           rdf:resource="http://purl.org/dc/dcmitype/StillImage" /></cc:Work></rdf:RDF></metadata><defs
     id="defs6" /><g
     transform="matrix(1.25,0,0,-1.25,0,38.3375)"
     id="g10"><g
       transform="scale(0.1,0.1)"
       id="g12"><path
         id="path14"
         style="fill:#5e83cb;fill-opacity:1;fill-rule:nonzero;stroke:none"
         d="m 169.48,63.0391 235.012,0 C 404.16,58.1289 399.66,44.7227 397.539,41.5977 l -228.059,0 0,21.4414" /><path
         id="path16"
         style="fill:#5e83cb;fill-opacity:1;fill-rule:nonzero;stroke:none"
         d="m 169.488,266.129 228.442,0 c 1.965,-3.531 6.406,-16.879 6.965,-21.441 l -235.407,0 0,21.441" /><path
         id="path18"
         style="fill:#5e83cb;fill-opacity:1;fill-rule:nonzero;stroke:none"
         d="m 211.855,144.273 163.02,0 c 5.309,-3.722 15.152,-15.949 19.09,-21.441 l -182.11,0 0,21.441" /><path
         id="path20"
         style="fill:#5e83cb;fill-opacity:1;fill-rule:nonzero;stroke:none"
         d="m 338.977,82.2109 67.949,0 c 0.176,5.6055 -2.031,17.1407 -3.711,21.4411 l -64.238,0 0,-21.4411" /><path
         id="path22"
         style="fill:#5e83cb;fill-opacity:1;fill-rule:nonzero;stroke:none"
         d="m 211.855,163.453 163.274,0 c 5.309,3.727 15.066,15.945 19.004,21.442 l -182.278,0 0,-21.442" /><path
         id="path24"
         style="fill:#5e83cb;fill-opacity:1;fill-rule:nonzero;stroke:none"
         d="m 338.977,225.508 67.695,0 c -0.024,-4.969 -1.867,-17.133 -3.535,-21.442 l -64.16,0 0,21.442" /><path
         id="path26"
         style="fill:#5e83cb;fill-opacity:1;fill-rule:nonzero;stroke:none"
         d="m 169.48,22.418 212.493,0 C 363.145,6.46094 346.516,0.976563 317.344,0.976563 l -147.864,0 0,21.441437" /><path
         id="path28"
         style="fill:#5e83cb;fill-opacity:1;fill-rule:nonzero;stroke:none"
         d="m 169.488,285.309 212.485,0 c -18.828,15.961 -35.457,21.441 -64.629,21.441 l -147.856,0 0,-21.441" /><path
         id="path30"
         style="fill:#5e83cb;fill-opacity:1;fill-rule:nonzero;stroke:none"
         d="m 0,285.309 148.301,0 0,21.4414 -148.301,0 0,-21.4414 z" /><path
         id="path32"
         style="fill:#5e83cb;fill-opacity:1;fill-rule:nonzero;stroke:none"
         d="m 0,244.688 148.301,0 0,21.4414 -148.301,0 0,-21.4414 z" /><path
         id="path34"
         style="fill:#5e83cb;fill-opacity:1;fill-rule:nonzero;stroke:none"
         d="m 0,41.5977 148.301,0 0,21.4414 -148.301,0 0,-21.4414 z" /><path
         id="path36"
         style="fill:#5e83cb;fill-opacity:1;fill-rule:nonzero;stroke:none"
         d="m 42.3672,82.2109 63.5625,0 0,21.4414 -63.5625,0 0,-21.4414 z" /><path
         id="path38"
         style="fill:#5e83cb;fill-opacity:1;fill-rule:nonzero;stroke:none"
         d="m 42.3672,122.832 63.5625,0 0,21.4414 -63.5625,0 0,-21.4414 z" /><path
         id="path40"
         style="fill:#5e83cb;fill-opacity:1;fill-rule:nonzero;stroke:none"
         d="m 42.3672,163.453 63.5625,0 0,21.4414 -63.5625,0 0,-21.4414 z" /><path
         id="path42"
         style="fill:#5e83cb;fill-opacity:1;fill-rule:nonzero;stroke:none"
         d="m 42.3672,204.066 63.5625,0 0,21.4414 -63.5625,0 0,-21.4414 z" /><path
         id="path44"
         style="fill:#5e83cb;fill-opacity:1;fill-rule:nonzero;stroke:none"
         d="m 211.855,82.2109 63.5547,0 0,21.4414 -63.5547,0 0,-21.4414 z" /><path
         id="path46"
         style="fill:#5e83cb;fill-opacity:1;fill-rule:nonzero;stroke:none"
         d="m 211.855,204.066 63.5547,0 0,21.4414 -63.5547,0 0,-21.4414 z" /><path
         id="path48"
         style="fill:#5e83cb;fill-opacity:1;fill-rule:nonzero;stroke:none"
         d="m 563.809,82.2109 58.789,0 7.461,21.4411 -73.711,0 7.461,-21.4411" /><path
         id="path50"
         style="fill:#5e83cb;fill-opacity:1;fill-rule:nonzero;stroke:none"
         d="m 549.668,122.832 87.07,0 7.461,21.441 -101.992,0 7.461,-21.441" /><path
         id="path52"
         style="fill:#5e83cb;fill-opacity:1;fill-rule:nonzero;stroke:none"
         d="m 0,0.976563 148.301,0 0,21.4414 -148.301,0 0,-21.4414 z" /><path
         id="path54"
         style="fill:#5e83cb;fill-opacity:1;fill-rule:nonzero;stroke:none"
         d="m 592.102,0.976563 2.207,0 7.468,21.441437 -17.148,0 7.473,-21.441437" /><path
         id="path56"
         style="fill:#5e83cb;fill-opacity:1;fill-rule:nonzero;stroke:none"
         d="m 466.086,82.2109 63.5625,0 0,21.4414 -63.5625,0 0,-21.4414 z" /><path
         id="path58"
         style="fill:#5e83cb;fill-opacity:1;fill-rule:nonzero;stroke:none"
         d="m 466.086,122.832 63.5625,0 0,21.4414 -63.5625,0 0,-21.4414 z" /><path
         id="path60"
         style="fill:#5e83cb;fill-opacity:1;fill-rule:nonzero;stroke:none"
         d="m 423.723,0.976563 105.918,0 0,21.4414 -105.918,0 0,-21.4414 z" /><path
         id="path62"
         style="fill:#5e83cb;fill-opacity:1;fill-rule:nonzero;stroke:none"
         d="m 423.723,41.5977 105.918,0 0,21.4414 -105.918,0 0,-21.4414 z" /><path
         id="path64"
         style="fill:#5e83cb;fill-opacity:1;fill-rule:nonzero;stroke:none"
         d="m 577.961,41.5977 30.496,0 7.461,21.4414 -45.43,0 7.473,-21.4414" /><path
         id="path66"
         style="fill:#5e83cb;fill-opacity:1;fill-rule:nonzero;stroke:none"
         d="m 656.77,82.2109 63.5508,0 0,21.4414 -63.5508,0 0,-21.4414 z" /><path
         id="path68"
         style="fill:#5e83cb;fill-opacity:1;fill-rule:nonzero;stroke:none"
         d="m 656.77,122.832 63.5508,0 0,21.4414 -63.5508,0 0,-21.4414 z" /><path
         id="path70"
         style="fill:#5e83cb;fill-opacity:1;fill-rule:nonzero;stroke:none"
         d="m 656.758,0.976563 105.938,0 0,21.4414 -105.938,0 0,-21.4414 z" /><path
         id="path72"
         style="fill:#5e83cb;fill-opacity:1;fill-rule:nonzero;stroke:none"
         d="m 656.77,41.5977 105.926,0 0,21.4414 -105.926,0 0,-21.4414 z" /><path
         id="path74"
         style="fill:#5e83cb;fill-opacity:1;fill-rule:nonzero;stroke:none"
         d="m 572.059,225.508 -105.973,0 0,-21.442 113.574,0 -7.601,21.442" /><path
         id="path76"
         style="fill:#5e83cb;fill-opacity:1;fill-rule:nonzero;stroke:none"
         d="m 599.961,184.895 -6.758,-19.247 -6.746,19.247 -120.363,0 0,-21.442 63.554,0 0,16.891 5.879,-16.891 115.352,0 5.879,16.891 0,-0.125 0.012,0.008 0,-16.774 63.55,0 0,21.442 -120.359,0" /><path
         id="path78"
         style="fill:#5e83cb;fill-opacity:1;fill-rule:nonzero;stroke:none"
         d="m 543.293,306.742 -119.57,0 0,-21.433 127.168,0 -7.598,21.433" /><path
         id="path80"
         style="fill:#5e83cb;fill-opacity:1;fill-rule:nonzero;stroke:none"
         d="m 557.676,266.129 -133.953,0 0,-21.441 141.55,0 -7.597,21.441" /><path
         id="path82"
         style="fill:#5e83cb;fill-opacity:1;fill-rule:nonzero;stroke:none"
         d="m 614.348,225.508 105.972,0 0,-21.442 -113.57,0 7.598,21.442" /><path
         id="path84"
         style="fill:#5e83cb;fill-opacity:1;fill-rule:nonzero;stroke:none"
         d="m 643.113,306.742 119.582,0 0,-21.433 -127.168,0 7.586,21.433" /><path
         id="path86"
         style="fill:#5e83cb;fill-opacity:1;fill-rule:nonzero;stroke:none"
         d="m 628.73,266.129 133.965,0 0,-21.441 -141.562,0 7.597,21.441" /><path
         id="path88"
         style="fill:#5e83cb;fill-opacity:1;fill-rule:nonzero;stroke:none"
         d="m 785.82,16.9375 c 0,9.2266 7.5,16.7578 16.758,16.7578 9.231,0 16.68,-7.5312 16.68,-16.7578 0,-9.30469 -7.449,-16.8398437 -16.68,-16.8398437 -9.258,0 -16.758,7.5351537 -16.758,16.8398437 z m 30.789,0 c 0,8.1602 -5.918,14.543 -14.031,14.543 -8.152,0 -14.109,-6.3828 -14.109,-14.543 0,-8.24219 5.957,-14.62109 14.109,-14.62109 8.113,0 14.031,6.3789 14.031,14.62109 z m -5.691,-9.39453 -2.734,0 -5.34,8.64453 -4.192,0 0,-8.64453 -2.297,0 0,18.75003 8.165,0 c 4.945,0 6.625,-1.8594 6.625,-4.9649 0,-3.6758 -2.559,-5.0468 -5.872,-5.1406 l 5.645,-8.64453 z m -8.777,10.46483 c 2.644,0 6.531,-0.4453 6.531,3.3711 0,2.918 -2.383,3.2734 -4.676,3.2734 l -5.344,0 0,-6.6445 3.489,0" /></g></g></svg>